<svg viewBox="0 0 128 128" xmlns="http://www.w3.org/2000/svg"><g fill-rule="evenodd" stroke="#aeaeb1" stroke-opacity=".373" paint-order="markers stroke fill"><path style="font-variation-settings:normal;-inkscape-stroke:none" d="M52.742 29.325c-.991.32-1.97.682-2.93 1.087-.966.406-1.656 1.627-1.567 2.671l.226 2.682a32.248 32.248 0 00-6.415 4.763l-2.536-1.067c-.965-.407-2.34-.126-3.026.666a36.477 36.477 0 00-3.678 5.065c-.54.897-.38 2.293.305 3.085l1.777 2.057a32.248 32.248 0 00-2.396 7.564l-2.794.653c-1.02.238-1.971 1.273-2.064 2.316a36.5 36.5 0 00-.086 1.216 41.86 41.86 0 000 3.793c.022.406.051.811.087 1.216.092 1.043 1.043 2.077 2.063 2.316l2.779.65c.204 1.317.49 2.62.857 3.903.454 1.24.983 2.452 1.586 3.627l-1.81 2.094c-.685.792-.844 2.187-.304 3.085a36.477 36.477 0 003.677 5.065c.686.792 2.062 1.073 3.028.666l2.554-1.077a32.248 32.248 0 006.4 4.732l-.23 2.722c-.09 1.044.6 2.265 1.566 2.671a36.497 36.497 0 005.944 1.92c1.02.236 2.298-.348 2.84-1.244l1.415-2.342c2.664.364 5.362.394 8.032.088l1.363 2.253c.543.897 1.82 1.481 2.84 1.246a36.51 36.51 0 005.944-1.92c.966-.406 1.655-1.627 1.567-2.671L79.53 92.2a32.248 32.248 0 006.41-4.773l2.54 1.07c.966.407 2.341.126 3.027-.666a36.477 36.477 0 003.677-5.065c.54-.898.38-2.293-.305-3.086L93.081 77.6a32.248 32.248 0 003.063-12.076l9.272-3.013c.07-.023.137-.053.206-.078a41.732 41.732 0 01-22.365 38.562c-.064.032-.196.105-.244.13a41.732 41.732 0 01-6.716 2.708 41.732 41.732 0 01-5.099 1.226 35.06 35.06 0 01-2.53.304c-1.063.124-2.13.208-3.2.25-.107.006-.215.013-.323.018-.855.036-2.083.004-3.096-.058-.58-.033-1.16-.078-1.739-.136-.55-.048-1.015-.084-1.652-.158l-.429-.054c-.787-.1-1.873-.305-2.826-.51a41.722 41.722 0 01-1.614-.386c-.616-.16-1.311-.337-2.056-.561l-.278-.083c-.842-.26-2.043-.717-2.996-1.1a41.73 41.73 0 01-3.454-1.56c-.754-.386-1.8-.996-2.666-1.515a41.733 41.733 0 01-.998-.611 38.786 38.786 0 01-2.017-1.39c-.086-.064-.172-.127-.258-.193-.628-.476-1.47-1.18-2.214-1.804-.327-.272-.65-.548-.969-.829a33.771 33.771 0 01-2.094-2.062c-.446-.483-1.013-1.15-1.569-1.79a41.732 41.732 0 01-1.078-1.263 29.809 29.809 0 01-1.463-1.996c-.066-.099-.13-.198-.194-.298a41.732 41.732 0 01-5.161-10.381 41.733 41.733 0 01-.89-3.7L10.78 77.302a55.01 55.01 0 00.915 3.692 55.01 55.01 0 008.009 15.434 54.095 54.095 0 003.082 3.882c.345.41.696.814 1.053 1.214l-2.402 5.7c-.407.966-.126 2.34.65 3.044a62.596 62.596 0 0010.87 7.904c.908.521 2.302.365 3.094-.32l4.746-4.103a55.011 55.011 0 005.55 2.195c.304.103.605.213.91.31a55.01 55.01 0 006.287 1.604l1.451 6.21c.238 1.02 1.275 1.964 2.316 2.075 4.46.473 8.954.466 13.412-.022 1.041-.114 2.076-1.063 2.315-2.083l1.427-6.104.025-.006a55.02 55.02 0 006.523-1.615 55.01 55.01 0 006.25-2.537l4.742 4.1c.793.685 2.188.843 3.097.323a62.585 62.585 0 0010.863-7.865c.778-.702 1.06-2.075.654-3.04l-2.476-5.877a55.01 55.01 0 004.143-4.992c.19-.259.37-.525.555-.786a55.012 55.012 0 003.2-5.039l6.25.53c1.045.089 2.264-.604 2.692-1.56a62.597 62.597 0 004.148-12.783c.215-1.025-.366-2.302-1.263-2.844l-5.294-3.2c.054-.533.1-1.067.138-1.602.142-1.648.222-3.299.212-4.952a55.01 55.01 0 00-2.592-17.194 54.803 54.803 0 00-1.312-3.563l-12.67 4.117-1.623.528-7.439 2.416-12.776 4.152-8.65 2.81a5.678 5.678 0 00-3.654 7.171l1.172 3.608 1.759 5.413 10.752-3.494a18.97 18.97 0 01-12.016 11.882c-9.964 3.238-20.665-2.215-23.902-12.179-3.238-9.963 2.215-20.665 12.178-23.902a18.97 18.97 0 0116.769 2.53l14.264-4.635a32.248 32.248 0 00-8.66-7.511c-.555-.637-.915-1.532-.849-2.312l.085-.991c.088-1.044-.603-2.266-1.568-2.673a36.487 36.487 0 00-5.915-1.92c-1.02-.237-2.298.346-2.84 1.243l-1.47 2.429a32.248 32.248 0 00-7.978-.072l-1.394-2.306c-.542-.896-1.819-1.48-2.84-1.245a36.513 36.513 0 00-3.013.833z" fill="#0c78ba" stroke-width=".94846"/><path style="font-variation-settings:normal" d="M56.56 2c-.742.361-1.369 1.085-1.548 1.85l-1.437 6.151a55.01 55.01 0 00-6.561 1.676c-2.08.7-4.116 1.528-6.098 2.47a55.01 55.01 0 00-.157.063l-4.738-4.095c-.792-.685-2.187-.844-3.097-.324a62.584 62.584 0 00-10.862 7.865c-.778.702-1.061 2.075-.655 3.04l2.477 5.877c-.127.135-.242.28-.367.417a55.01 55.01 0 00-1.724 1.955 54.977 54.977 0 00-3.256 4.355 55.01 55.01 0 00-.79 1.153c-.616.96-1.205 1.94-1.76 2.937l-6.252-.53c-1.044-.089-2.263.604-2.692 1.56a62.596 62.596 0 00-4.147 12.783c-.215 1.025.366 2.302 1.263 2.844l5.293 3.2a54.98 54.98 0 00-.01 12.435 55.01 55.01 0 00.003.077l12.958-4.21a41.732 41.732 0 01.27-6.298c.023-.231.028-.355.054-.58l.008-.067a41.732 41.732 0 011.181-5.692c.11-.405.175-.684.294-1.085a41.732 41.732 0 011.95-5.086c.216-.475.385-.865.63-1.358a41.732 41.732 0 012.597-4.457c.31-.466.603-.91.984-1.43a41.732 41.732 0 013.172-3.853c.367-.397.796-.85 1.31-1.349a41.732 41.732 0 013.721-3.266 33 33 0 011.464-1.071 41.732 41.732 0 014.485-2.806c.137-.076.561-.282.885-.449a41.732 41.732 0 015.687-2.387l.064-.019a41.732 41.732 0 016.335-1.503c.1-.015.277-.047.34-.056a41.732 41.732 0 016.306-.452c.239.003.387.005.566.01a41.732 41.732 0 016.192.558c.258.045.33.064.555.106a41.732 41.732 0 015.957 1.536c.068.023.168.05.236.073.115.04.133.053.246.093a41.732 41.732 0 015.581 2.455c.186.096.41.207.576.297a41.732 41.732 0 015.126 3.33c.213.157.393.298.568.434a41.732 41.732 0 014.438 4.033c.216.221.373.394.541.574a41.732 41.732 0 013.62 4.559c.082.117.232.322.308.431l13.005-4.225.014-.005a55.01 55.01 0 00-.197-.294 55.988 55.988 0 00-3.801-5.67 55.01 55.01 0 00-.404-.518 53.488 53.488 0 00-3.067-3.625l2.454-5.825c.407-.965.127-2.34-.65-3.041a62.606 62.606 0 00-10.826-7.846c-.91-.52-2.303-.363-3.096.322l-4.775 4.128a54.94 54.94 0 00-3.302-1.4 55.01 55.01 0 00-.612-.23 55.012 55.012 0 00-6.544-2.017 55.01 55.01 0 00-.397-.1c-.05-.012-.097-.027-.147-.039-1.02-.234-2.049-1.218-2.287-2.238l-1.006-4.307c-.239-1.02-1.273-1.965-2.315-2.076a62.607 62.607 0 00-13.37.004A2.33 2.33 0 0056.56 2z" fill="#4b4c4e" stroke-width=".94846"/></g></svg>